<?xml version="1.0" encoding="UTF-8"?>
<svg id="Layer_1" data-name="Layer 1" xmlns="http://www.w3.org/2000/svg" viewBox="0 0 640.76 832.31">
  <defs>
    <style>
      .cls-1 {
        fill: gray;
      }

      .cls-2 {
        fill: #ddd;
      }

      .cls-3 {
        fill: #a7a7a7;
      }

      .cls-4 {
        fill: #727272;
      }

      .cls-5 {
        fill: #707070;
      }

      .cls-6 {
        fill: #777;
      }

      .cls-7 {
        fill: #767676;
      }

      .cls-8 {
        fill: #8d8d8d;
      }

      .cls-9 {
        fill: #a5a5a5;
      }

      .cls-10 {
        fill: #919191;
      }

      .cls-11 {
        fill: #ccc;
      }

      .cls-12 {
        fill: #c9c9c9;
      }

      .cls-13 {
        fill: #4e4e4e;
      }

      .cls-14 {
        fill: #f5f5f5;
      }

      .cls-15 {
        fill: #838383;
      }

      .cls-16 {
        fill: #a4a4a4;
      }

      .cls-17 {
        fill: #4c4c4c;
      }
    </style>
  </defs>
  <path class="cls-10" d="M251.22,149.88c23.82-.44,47.93-.46,72.32-.05,59.61,107.53,89.42,161.29,89.42,161.29,1.11,1.99,2.47,5.32.07,6.62-13.23,23.54-30.02,45.68-48.94,64.95l-1.37,4.6c-12.3,18.1-25.75,35.11-40.34,51.02h-1.49c-30.96-39.41-61.65-78.96-92.06-118.62l-11.11,12.31-2.45-.27-9.53,7.9c-67.86,40.31-135.86,79.86-204.01,118.66l-1.2-.67,94.68-139.56-28.7-56.84c-1.61-31.65-3.77-63.18-5.07-94.85-.59-14.33-1.69-12.77,3.01-26.49l8.85-19.43,50.72-88.41c1-1.66,2.88-1.45,4.39-.6l103.97,154.53c1.78.88,15.35-31.67,16.69-35.4l2.15-.7Z"/>
  <path class="cls-9" d="M486.93,80.93c.2-1.24.43-2.47.8-3.66s.75-2.31,1.37-3.29c9.48-14.79,19.14-29.73,28.96-44.29,1.03-1.53,4.72-1.92,5.9-.08l47.38,85.93,9.48,21.34c2.83,8.33,4.28,8.3,4.03,18.53-.79,32.53-4.74,65.21-5.09,97.82l-3.08,7.91-28.62,56.94,92.67,139.06c.34,3.47-3.46.51-3.98.48l-8-2.38c-62.97-37-125.98-74.03-189.02-111.07l-8.74-7.45c-1.38-.27-2.89-.57-3.97-1.53-5.02-4.45-12.19-11.47-14.01-17.45-.23-.25-1.01-4.28-1.82-5.67-31.06-52.84-58.99-107.55-88.47-161.29l-71.51-.9c-.89-.18-.86-.52,0-1h144.83l2.2.11,16.13,40.39c23.25-36.53,46.95-72.64,71.09-108.32l1.48-.13Z"/>
  <path class="cls-16" d="M258.21,512.58c-.63,3.5-1.3,6.99-2.11,10.45s-1.62,6.9-2.72,10.25c-9.84,30.05-19.75,60.08-30.1,89.96l19.31,68.02c2,.85,3.72,1.63,2.63,4.18l7.89,5.41c6.36,7.05,13.31,13.4,20.84,19.06l.24,2.51,6.16,1.17c14.11,6.46,28.14,13.04,42.09,19.73l41.22-19.97,5.42-.93.15-2.44c8.38-6.33,16.5-12.98,24.34-19.94l1.48.4,2.17.35,11.04,39.59-1.23,3.03c-4.41,4.57-8.64,10.04-12.96,14.51-24.01,24.91-48.32,49.58-72.44,74.4-85.51-90.32-172.51-179.16-257.64-269.82l-2.99-1-46.49,7.04c-.99-1.39,4.2-15.25,4.98-17.99,28.25-35.5,58.61-69.72,91.09-102.66l3.8-2.25c6.72-12.13,16.7-22.9,27.97-30.98l1.82-1.08c37.94,32.07,75.9,64.15,113.87,96.24l.17,2.76Z"/>
  <path class="cls-12" d="M498.92,416.66c11.29,8.08,22.43,19.73,28.97,31.97l4.39,2.97c33.93,35.25,65.43,71.23,94.49,107.94.65,2.38,2.66,4.95,1.99,7.99l-42.49-5.02c-5.8-1.13-7.26,4.36-10.42,7.55-56.67,57.37-112.87,115.34-168.82,173.33l-11.99-42.97c-.4-1.22.27-2.55,2-4-.54-1.85.66-3.59,3.58-5.23l20.41-68.91c-13.16-36.45-24.82-73.36-34.98-110.71l.17-2.75c36.83-30.97,73.65-61.94,110.47-92.91l2.23.74Z"/>
  <path class="cls-7" d="M251.22,148.88c0,.33,0,.67,0,1,.01,2.96-9.98,23.92-12.13,28.34-1.46,3-3.27,7.39-4.99,9.99-.41.62-1.09,2.13-1.86,1.15L126.35,31.97l-61.91,107.91C80.45,93.13,98.5,46.98,113.88,0l137.34,148.88Z"/>
  <path class="cls-6" d="M215.26,331.73c-21.81,29.69-46.3,57.46-72.91,82.93-9.23,10.41-18.78,20.66-27.97,30.98-3.46,2.71-6.93,3.28-11.13,3.84-16.44,2.2-33.18,4.24-49.73,6.05-1.47.16-2.97.04-4.49-.11s-3.05-.45-4.57-.79c-14.79,1.76-29.68,3.05-44.46,4.98l.52-1.98,214.74-125.9Z"/>
  <path class="cls-8" d="M636.75,457.63c-13.07-.77-25.9-1.86-38.95-3-23.45-.07-46.79-2.07-69.92-6-9.45-10.77-19.56-21.17-28.97-31.97-25.2-24.16-48.05-51.23-67.92-79.94l205.75,120.9Z"/>
  <path class="cls-1" d="M469.95,68.94c1.49-1.47,2.67-.89,4.21-.11,9.47-9.63,9.69,3.47,7.79,10.75,2.66-1.55,5.69-2.61,4.98,1.35-.36.55-.39,2.16-1.14,3.31-23.44,35.96-48.25,71.05-70.79,107.6l-2.05-.61-16.91-42.35c24.14-27.08,49.21-53.37,73.91-79.94Z"/>
  <path class="cls-3" d="M597.8,454.63c8.6,35.2,19.47,69.9,28.97,104.92-.44,2.02-2.61-1.08-2.97-1.53-29.69-37.14-64.36-73.43-95.91-109.38,23.3,1.97,46.62,3.97,69.92,6Z"/>
  <path class="cls-10" d="M114.38,445.64c-29.83,33.47-64.06,68.54-91.92,103.39-.36.45-2.53,3.55-2.97,1.53,8.65-30.33,18.22-60.51,26.46-90.94.74-2.75,3.1-6-1.49-4.99,19.05-2.27,38.38-5.14,57.42-7.01,4.09-.4,8.38-1.53,12.5-1.99Z"/>
  <path class="cls-15" d="M469.95,68.94c20.34-21.87,40.59-45.8,61.5-66.88.82-.83.87-1.44,2.42-1.07-.13,3.01,1,5.75,1.99,8.5,15.21,42.34,30.51,84.8,44.96,127.38l-58.94-106.91-2.43,1.05c-10.05,17.14-21.73,33.32-32.52,49.9-2.14-3.24-5.3,4.48-6.88-.66-.82-2.67,4.19-16.19-2.91-12.1-2,1.15-.5,4.88-7.19.77Z"/>
  <path class="cls-11" d="M215.26,331.73l13.99-15.5,91.9,120.42c.52.34,2.41-1.92,2.95-2.53,13.38-15.17,27.32-35.08,39.98-51.43,2.9,22.54,2.91,45.41,0,67.95,1.46.8,1.88,5.76,2,8.01v162.62l-2,1.23-2.34.25c-2.4-3.39-5.13-6.46-8.19-9.19-10.42-2.45-21.07-4.61-31.74-5.68-10.87,2.25-21.69,4.05-32.46,5.39-1.66,3.9-4.72,10.08-9.16,10.23l-2-.69-.95-159.64c-5.58,15.81-11.2,31.55-16.88,47.22l-2.14,2.19-115.86-97.92c24.41-27.54,48.79-55.15,72.91-82.93Z"/>
  <path class="cls-2" d="M431,336.73c22.41,26.8,44.98,53.59,67.92,79.94l-112.86,94.92c-9.72-20.9-17.05-41.22-21.97-60.95,0-22.58,0-45.32,0-67.95,16.57-21.41,33.01-43.05,48.94-64.95,5.64,6.05,12.32,12.22,17.98,18.98Z"/>
  <polygon class="cls-5" points="132.34 135.89 206.27 222.81 174.25 199.33 171.31 199.27 113.39 289.76 130.36 136.39 132.34 135.89"/>
  <polygon class="cls-4" points="532.87 289.76 474.93 197.84 472.44 198.83 439 224.81 514.4 133.89 532.87 289.76"/>
  <path class="cls-14" d="M280.18,623.5l.84,2.17c-3.24,3.75-6.07,7.75-8.47,12.03l13.74,34.26,35.38,19.05c1.03,1.13.6,2.8-.04,4.13-1.02,2.08-40.74,17.68-43.02,17.23-11.78-4.15-23.3-9.54-33.38-16.93-1.8-1.89-2.75-1.66-4.31-3.21l-19.53-69.23c12.58-36.7,24.42-73.67,36.83-110.41,6.14-18.19,12.26-38.56,19.24-56.21.42-1.06.29-2.98,1.73-2.74l1.01,169.86Z"/>
  <path class="cls-13" d="M364.08,622.5c.61-.59,1.28-.75,2.09-.58,1.45.31,9.8,13.95,9.83,16.13.03,1.88-12.87,32.66-14.38,34.81-10.67,8.13-22.44,14.96-35.3,20.51l39.04,15.53c9.13-3.92,18.58-8.21,28.36-12.87l3.31.41.98.49c-1.3.87-2.04,2.53-2.98,3.5-6.4,6.55-18.66,17.68-25.97,21.98l-3.93.88c-29-2.13-58.03-2.03-87.02.01l-3.93-.89c-8.73-5.2-21.51-19.15-28.97-26.98,11.46,4.27,22.01,11.1,33.48,15.03,5.22-2.06,41.4-15.39,42.42-17.53l-36.41-19.53-14.28-35.6c-.11-2.24,7.77-11.73,9.74-14.31,2.89-3.8,6.02-7.49,8.2-11.78,10.65-.03,23.22-5.54,33.41-5.83,3.95-.11,28.47,4.47,32.57,5.86,2.11.72,7.89,8.46,9.73,10.75Z"/>
  <path class="cls-14" d="M369.07,722.42c-14.92,8.78-31.02,15.27-46.61,22.76-15.35-7.87-33.57-14.01-48.28-22.76,31.6-3.73,63.3-3.86,94.89,0Z"/>
  <path class="cls-14" d="M364.08,450.63c2.71-.58,1.94,1.37,2.46,2.99,6.27,19.39,13.04,38.66,19.51,57.97,12.35,36.8,24.53,73.68,36.89,110.48l-20.6,70.1c-.61,1.09-4.1,3.55-5.3,4.27-9.17,5.49-21.69,9.52-31.29,14.76l-42.62-16.77c-.5-2.34.32-1.6,1.29-2.23,7.61-4.93,31.38-14.44,35.53-20.39l14.14-33.92c.12-2.26-7.98-12.89-10-15.4v-171.86Z"/>
  <path class="cls-17" d="M246.99,395.91l31.19,53.72c-9.26-2.81-17.04-11.63-26.15-14.3-11.89-3.47-26.82-3.4-39.02-6.92l-2.59-2.41-21.12-40.31,57.69,10.21Z"/>
  <path class="cls-13" d="M366.08,449.62l32.19-53.72,57.69-11.22c1.53,1.93-19.78,38.7-22.98,43.45-12.63,4.85-29.32,3.89-41.92,8.02-3.53,1.16-23.93,14.43-24.98,13.47Z"/>
</svg>